{"title":"Before Midnight 2013 BRRip 480p x264 AAC - VYTO [P2PDL]","uid":9013432,"size":374530864,"categoryP":"video","categoryS":"movies","magnet":"?xt=urn:btih:132edf3b1ddbde9d2e9e64b34efd4bbf6410fa03&amp;dn=Before+Midnight+2013+BRRip+480p+x264+AAC+-+VYTO+%5BP2PDL%5D&amp;tr=udp%3A%2F%2Ftracker.openbittorrent.com%3A80&amp;tr=udp%3A%2F%2Fopen.demonii.com%3A1337&amp;tr=udp%3A%2F%2Ftracker.coppersurfer.tk%3A6969&amp;tr=udp%3A%2F%2Fexodus.desync.com%3A6969","seeders":1,"leechers":0,"uploader":"Vitamin_X","files":-1,"time":1381150913,"description":"_______ Visit us at our Semi Public Bittorrent Community ________\n  &lt;a href=&quot;\nhttp://p2pdl.com&quot; rel=&quot;nofollow&quot; target=&quot;_NEW&quot;&gt;\nhttp://p2pdl.com&lt;/a&gt;  _____________________________ &lt;a href=&quot; http://p2pdl.com&quot; rel=&quot;nofollow&quot; target=&quot;_NEW&quot;&gt; http://p2pdl.com&lt;/a&gt;\n\n\nBefore Midnight 2013 BRRip 480p x264 AAC - VYTO\n\n\nGenre: Drama | Romance\nPlot: We meet Jesse and Celine nine years on in Greece. \nAlmost two decades have passed since their first \nmeeting on that train bound for Vienna..\nDirector: Richard Linklater\nStars: Ethan Hawke, Julie Delpy, Seamus Davey-Fitzpatrick\nRated: Rated R for sexual content/nudity and language\n\nInfo: &lt;a href=&quot;\nhttp://www.imdb.com/title/tt2209418/&quot; rel=&quot;nofollow&quot; target=&quot;_NEW&quot;&gt;\nhttp://www.imdb.com/title/tt2209418/&lt;/a&gt;\n\n\nGeneral\nFormat                         : MPEG-4\nFile size                      : 352 MiB\nDuration                       : 1h 48mn\nOverall bit rate mode          : Variable\nOverall bit rate               : 452 Kbps\n\nVideo\nFormat                         : AVC\nBit rate                       : 409 Kbps\nWidth                          : 720 pixels\nHeight                         : 384 pixels\nDisplay aspect ratio           : 1.85:1\nFrame rate mode                : Constant\nFrame rate                     : 23.976 fps\nBit depth                      : 10 bits\nStream size                    : 318 MiB (90%)\nWriting library                : x264 core 138 r2358 9e941d1\n\n\nAudio\nFormat                         : AAC\nBit rate                       : 39.9 Kbps\nChannel(s)                     : 2 channels\nChannel positions              : Front: L R\nSampling rate                  : 48.0 KHz / 24.0 KHz\nStream size                    : 31.1 MiB (9%)\nLanguage                       : English\n\n\nSubtitle                       : Yes (English)\n\nSource                         : 720p.BluRay.x264-SPARKS\n\n &lt;a href=&quot;\nhttp://ultraimg.com/images/uZKN.png&quot; rel=&quot;nofollow&quot; target=&quot;_NEW&quot;&gt;\nhttp://ultraimg.com/images/uZKN.png&lt;/a&gt; &lt;a href=&quot;\nhttp://ultraimg.com/images/6fOpI.png&quot; rel=&quot;nofollow&quot; target=&quot;_NEW&quot;&gt;\nhttp://ultraimg.com/images/6fOpI.png&lt;/a&gt; &lt;a href=&quot;\nhttp://ultraimg.com/images/wc0X.png&quot; rel=&quot;nofollow&quot; target=&quot;_NEW&quot;&gt;\nhttp://ultraimg.com/images/wc0X.png&lt;/a&gt; &lt;a href=&quot;\nhttp://ultraimg.com/images/FEORf.png&quot; rel=&quot;nofollow&quot; target=&quot;_NEW&quot;&gt;\nhttp://ultraimg.com/images/FEORf.png&lt;/a&gt; &lt;a href=&quot;\nhttp://ultraimg.com/images/xr86e.png&quot; rel=&quot;nofollow&quot; target=&quot;_NEW&quot;&gt;\nhttp://ultraimg.com/images/xr86e.png&lt;/a&gt; &lt;a href=&quot;\nhttp://ultraimg.com/images/DyALP.png&quot; rel=&quot;nofollow&quot; target=&quot;_NEW&quot;&gt;\nhttp://ultraimg.com/images/DyALP.png&lt;/a&gt; &lt;a href=&quot;\nhttp://ultraimg.com/images/yikSn.png&quot; rel=&quot;nofollow&quot; target=&quot;_NEW&quot;&gt;\nhttp://ultraimg.com/images/yikSn.png&lt;/a&gt;\n\n\n----------------------------------------------------------------------------------------------------\n\n\nEncoded using revolutionary 10bit encoding, which enables us to provide you more crispier \nand sharper images at small sizes, just make sure you follow our instructions without a fault.\nRecommend to you to use latest version of VLC player. Install K-Lite Codec Pack or shark007 codecs\nin case of any kind of problem in playback (For non-VLC Media Player users). Alternatively, install\nCore AVC codecs, the fastest decoder that there is coupled with Community Center Codec Pack and play\non Windows Media Player Classic. Check sample to be sure.\nEnjoy!\n\nEncoder Notes:Looking For Early Access To Anything You Can Provide DVDScr, R5, DVDR, BluRay, Direct\nAudio, Music Releases and Seedboxes. We require dedicated servers, so as to do more \nand fast releases of movies.\nIf You Got anything to offer please contact us at &quot;&lt;a class=&quot;__cf_email__&quot; href=&quot;/cdn-cgi/l/email-protection&quot; data-cfemail=&quot;fb8b899cbb938e8893d5989496&quot;&gt;[email&amp;#160;protected]&lt;/a&gt;&lt;script cf-hash='f9e31' type=&quot;text/javascript&quot;&gt;\n/* &lt;![CDATA[ */!function(){try{var t=&quot;currentScript&quot;in document?document.currentScript:function(){for(var t=document.getElementsByTagName(&quot;script&quot;),e=t.length;e--;)if(t[e].getAttribute(&quot;cf-hash&quot;))return t[e]}();if(t&amp;&amp;t.previousSibling){var e,r,n,i,c=t.previousSibling,a=c.getAttribute(&quot;data-cfemail&quot;);if(a){for(e=&quot;&quot;,r=parseInt(a.substr(0,2),16),n=2;a.length-n;n+=2)i=parseInt(a.substr(n,2),16)^r,e+=String.fromCharCode(i);e=document.createTextNode(e),c.parentNode.replaceChild(e,c)}}}catch(u){}}();/* ]]&gt; */&lt;/script&gt;&quot;.\n\nFacebook Fan Page:  \nSearch P2PDL on FB and hit like!!!\n\nFor more of our team uploads visit @                                             &lt;a href=&quot; http://thepiratebay.se/user/vitamin_x&quot; rel=&quot;nofollow&quot; target=&quot;_NEW&quot;&gt; http://thepiratebay.se/user/vitamin_x&lt;/a&gt;\t","torrent":{"xt":"urn:btih:132edf3b1ddbde9d2e9e64b34efd4bbf6410fa03","amp;dn":"Before+Midnight+2013+BRRip+480p+x264+AAC+-+VYTO+%5BP2PDL%5D","amp;tr":["udp%3A%2F%2Ftracker.openbittorrent.com%3A80","udp%3A%2F%2Fopen.demonii.com%3A1337","udp%3A%2F%2Ftracker.coppersurfer.tk%3A6969","udp%3A%2F%2Fexodus.desync.com%3A6969"],"infoHash":"132edf3b1ddbde9d2e9e64b34efd4bbf6410fa03","infoHashBuffer":{"type":"Buffer","data":[19,46,223,59,29,219,222,157,46,158,100,179,78,253,75,191,100,16,250,3]},"announce":[],"urlList":[]}}